<svg xmlns="http://www.w3.org/2000/svg" width="25" height="25"><path d="M22.656 19.531H11.72l-6.25 4.688V19.53H2.344A1.563 1.563 0 01.78 17.97V2.344A1.563 1.563 0 012.344.78h20.312a1.563 1.563 0 011.563 1.563v15.625a1.563 1.563 0 01-1.563 1.562zM7.813 9.766" fill="none"/><path d="M7.813 9.766a.39.39 0 10.39.39.39.39 0 00-.39-.39M12.5 9.766" fill="none"/><path d="M12.5 9.766a.39.39 0 10.39.39.39.39 0 00-.39-.39M17.188 9.766"/><path d="M17.188 9.766a.39.39 0 10.39.39.39.39 0 00-.39-.39" fill="none"/></svg>